<svg width="874" height="126" viewBox="0 0 874 126" fill="none" xmlns="http://www.w3.org/2000/svg">
<path d="M6.64258 1.35938C18.3336 2.14413 29.4898 5.11836 40.2295 9.63281L41.4619 10.1582C57.5316 17.1104 68.7725 27.3383 74.9727 40.0469C80.9801 52.3607 82.3117 67.1196 78.5674 83.7002L78.1895 85.3105C75.013 98.3606 69.5955 110.59 62.6787 122.193L62.0508 122.164C62.071 110.005 62.4114 97.7473 62.1182 85.5352L62.0488 83.0195C61.7145 70.7884 59.5769 58.6681 55.7031 47.0234L55.3223 45.8975L55.3203 45.8906L54.8994 44.7178C46.5007 21.8234 30.0443 7.73944 6.64258 1.35938Z" stroke="white" stroke-width="2.30323"/>
<path d="M121.439 7.01416C124.586 7.01447 127.695 7.293 131.595 7.53857L93.8604 71.7349C95.7708 65.2651 96.3334 58.6559 96.6836 52.1167L96.834 49.1128C97.1974 41.5375 97.2946 34.0497 98.2539 26.6567C99.1692 19.6329 101.427 14.8153 105.104 11.7163C108.791 8.6087 114.093 7.06915 121.439 7.01416Z" stroke="white" stroke-width="2.30323"/>
<path d="M230.177 8.14783C234.362 8.14783 237.352 8.8165 239.295 10.0082L239.305 10.015L239.316 10.0209C241.203 11.1238 242.648 12.7961 243.433 14.767V14.766C244.188 16.6797 244.595 18.7022 244.638 20.7455L244.641 21.1547V33.2855H243.257C243.049 26.5589 240.992 21.4007 236.886 18.0502C232.632 14.5777 226.68 12.9213 219.191 12.9213H183.875V61.2582H233.394V66.0385H183.875V117.91H217.126C225.562 117.91 232.37 116.409 237.444 113.293C242.324 110.297 246.152 105.359 248.993 98.6136L250.431 98.9613L244.479 114.554L244.472 114.573L244.466 114.592C243.66 116.946 242.114 119.007 240.033 120.485C238.14 121.817 235.637 122.571 232.445 122.66L231.798 122.668H231.797L169.702 122.69V28.2494C169.702 22.8384 168.924 18.37 167.289 14.9144C165.471 11.0726 161.377 9.38716 155.699 9.38708H153.165V8.14783H230.177Z" stroke="white" stroke-width="2.30323"/>
<path d="M311.602 8.14783L312.921 8.16736C315.556 8.2216 318.188 8.37348 320.811 8.62341L322.122 8.75623L322.125 8.7572C325.937 9.15867 329.705 9.87612 333.387 10.9017L334.124 11.1107L334.128 11.1127C338.073 12.2422 341.802 13.9811 345.167 16.2621V16.2631C348.328 18.4156 350.958 21.2043 352.879 24.4301L353.254 25.0814L353.259 25.0902C355.153 28.4285 356.188 32.6011 356.306 37.6586L356.318 38.682V38.683C356.318 45.0418 354.947 50.0609 352.309 53.8383L352.051 54.1996L352.045 54.2074C349.459 57.7841 346.02 60.7091 342.019 62.7377L341.212 63.1312L341.206 63.1342C336.943 65.1573 332.468 66.736 327.857 67.8422L326.304 68.2142L327.148 69.5697L346.403 100.516C351.073 108.102 355.321 113.416 359.162 116.321V116.32C362.591 118.956 366.672 120.665 370.989 121.287V123.024C369.855 123.438 368.679 123.738 367.477 123.911L367.462 123.912L367.446 123.915C365.305 124.285 363.134 124.469 360.959 124.462H360.943C357.153 124.501 353.403 123.717 349.97 122.172C346.668 120.665 343.369 118.125 340.084 114.493C336.238 110.045 332.772 105.304 329.72 100.318L329.115 99.3168L329.109 99.307L310.767 69.2435L310.431 68.6918H295.789V122.691H281.586V28.2494C281.586 22.8384 280.806 18.37 279.172 14.9144C277.354 11.073 273.263 9.38711 267.59 9.38708H265.071V8.14783H311.602ZM310.157 12.0551C308.152 12.0758 306.15 12.2159 304.164 12.475L303.313 12.5931C301.36 12.8559 299.422 13.2125 297.507 13.6615L296.685 13.8597L295.812 14.0775L295.811 14.9769L295.789 63.6478L295.788 64.8002H310.19C313.347 64.7422 316.48 64.2489 319.493 63.3353L319.492 63.3344C322.978 62.3178 326.291 60.8099 329.323 58.8588L329.324 58.8597C332.553 56.789 335.251 54.0272 337.205 50.7855L337.204 50.7845C339.295 47.3804 340.308 43.2682 340.302 38.5043C340.297 33.7358 339.276 29.6196 337.176 26.2142H337.175C335.21 22.9686 332.525 20.1881 329.316 18.0717H329.317C326.295 16.0615 322.972 14.5136 319.465 13.4808H319.466C316.458 12.5824 313.333 12.1028 310.186 12.0551H310.157Z" stroke="white" stroke-width="2.30323"/>
<path d="M424.785 8.14783C448.863 8.14783 466.608 13.3106 478.232 23.4271C489.869 33.5549 495.717 47.2663 495.717 64.6937L495.709 65.7465C495.558 76.5864 493.066 86.215 488.259 94.6615C483.463 103.088 476.419 109.773 467.084 114.711L466.174 115.184H466.173C456.719 120.007 444.984 122.521 430.921 122.669L429.553 122.676H429.552L394.39 122.69V28.2494C394.39 22.8384 393.611 18.37 391.976 14.9144C390.158 11.0727 386.064 9.38708 380.386 9.38708H377.883V8.14783H424.785ZM428.626 12.0551C426.022 12.083 423.423 12.2797 420.846 12.6439L419.749 12.809C416.447 13.322 413.183 14.043 409.979 14.9672L409.146 15.2074V116.322L410.078 116.503C412.53 116.98 414.838 117.389 417.021 117.746C419.217 118.106 421.288 118.377 423.34 118.558C425.393 118.739 427.257 118.798 428.992 118.798V118.799C437.513 118.918 445.905 116.797 453.27 112.667L453.979 112.262L453.989 112.256C461.519 107.763 467.606 101.328 471.564 93.6713L471.565 93.6722C475.894 85.6251 478.033 76.1947 478.028 65.4193L478.022 64.4242C477.894 54.1835 475.788 45.189 471.666 37.474H471.667C467.841 30.0449 462.046 23.7394 454.881 19.1937L454.184 18.7592L454.178 18.7562L453.48 18.3431C446.462 14.277 438.47 12.1912 429.536 12.0609L428.639 12.0551H428.626Z" stroke="white" stroke-width="2.30323"/>
<path d="M564.344 8.14783L604.399 102.16L604.403 102.167L604.406 102.175C607.364 108.828 610.25 113.626 613.095 116.43C615.835 119.13 619.676 120.729 624.491 121.332V122.916C623.972 123.023 623.452 123.119 622.928 123.2L622.104 123.315L622.092 123.317C620.846 123.488 619.588 123.573 618.329 123.572C615.071 123.484 611.838 123.001 608.707 122.132H608.706C604.558 120.96 600.757 118.863 597.609 116.015L597.598 116.005L597.586 115.995L597.251 115.702C594.024 112.81 591.158 108.454 588.693 102.551L588.188 101.308L588.186 101.302L583.58 89.7943L583.29 89.0707H530.394L530.093 89.7611L515.723 122.713H510.01L560.353 8.14783H564.344ZM555.801 31.307L532.876 82.6537L532.152 84.2748H580.626L579.937 82.6683L557.911 31.3226L556.874 28.9047L555.801 31.307Z" stroke="white" stroke-width="2.30323"/>
<path d="M638.08 8.14783C643.958 8.14783 648.691 9.07604 652.337 10.8617V10.8607C656.07 12.691 659.357 15.2589 661.988 18.3929V18.392L726.169 95.3685L728.206 97.8109V8.14783H733.242V124.462H731.279L652.753 30.1576L650.717 27.7123V122.691H645.68V28.2494C645.68 22.7721 644.483 18.2335 641.98 14.7367C639.336 11.043 634.515 9.3871 627.992 9.38708H627.308V8.14783H638.08Z" stroke="white" stroke-width="2.30323"/>
<path d="M812.702 8.17004L852.757 102.182L852.76 102.189L852.763 102.196C855.711 108.85 858.597 113.648 861.455 116.453C864.203 119.151 868.042 120.751 872.848 121.355V122.938C872.33 123.044 871.809 123.14 871.285 123.221L870.461 123.337L870.457 123.338C869.356 123.483 868.247 123.561 867.136 123.572H866.66C863.409 123.482 860.182 122.998 857.056 122.132L857.031 122.126L856.337 121.938C852.866 120.934 849.416 118.971 845.987 115.999C842.638 113.097 839.658 108.642 837.091 102.546L836.583 101.305L836.582 101.302L831.975 89.7941L831.686 89.0704H778.791L778.489 89.7618L764.119 122.713H758.369L808.711 8.17004H812.702ZM804.159 31.3068L781.226 82.6534L780.502 84.2745H828.968L828.28 82.6691L806.268 31.3224L805.232 28.9044L804.159 31.3068Z" stroke="white" stroke-width="2.30323"/>
</svg>
