<svg width="322" height="48" viewBox="0 0 322 48" fill="none" xmlns="http://www.w3.org/2000/svg">
<path d="M3.02148 0.676758C6.94221 1.01905 10.7006 2.05309 14.3311 3.58789L15.2393 3.98242C21.1438 6.62893 25.273 10.5214 27.5508 15.3584C29.7584 20.0466 30.2489 25.67 28.8711 31.9912L28.7324 32.6055C27.5668 37.567 25.5795 42.2171 23.0439 46.6309L22.9365 46.626C22.9443 42.3238 23.0524 37.9862 22.9805 33.6611L22.9355 31.7402C22.8162 27.2182 22.0739 22.7358 20.7314 18.4189L20.4551 17.5576L20.4541 17.5547L20.1387 16.6631C17.0602 8.35296 11.2325 3.14723 3.02148 0.676758Z" fill="#2C6466" stroke="#2C6466"/>
<path d="M44.7407 2.79004C45.869 2.79014 46.9812 2.88642 48.3715 2.97852L34.8022 26.8955C35.3892 24.597 35.5763 22.2591 35.6957 19.9473L35.7514 18.8008C35.8687 16.2687 35.9104 13.7661 36.1557 11.291L36.2739 10.2324C36.6105 7.55627 37.4403 5.73356 38.7778 4.56543C40.1168 3.39612 42.047 2.81105 44.7407 2.79004Z" fill="#2C6466" stroke="#2C6466"/>
<path d="M84.8019 3.22363C86.2398 3.22363 87.2812 3.44712 87.9796 3.83984L88.1154 3.9209L88.1241 3.92676C88.804 4.33857 89.3279 4.96426 89.6134 5.70605V5.70508C89.871 6.38193 90.0176 7.09519 90.049 7.81738L90.0558 8.12793V12.6973H89.6945C89.6078 10.1523 88.848 8.18638 87.3282 6.90137C85.7421 5.56033 83.5274 4.92486 80.755 4.9248H67.6681V23.4961H85.9113V25.2002H67.6681V45.1201H79.9943C83.1124 45.1201 85.6386 44.5452 87.5255 43.3447C89.3266 42.1987 90.7348 40.3199 91.7814 37.7686L92.171 37.8662L89.9982 43.7627L89.9952 43.7705L89.9933 43.7783C89.7363 44.5565 89.2727 45.2479 88.6554 45.7803L88.381 45.999C87.7452 46.462 86.916 46.7395 85.8644 46.8018L85.3995 46.8154H85.3986L62.5978 46.8232V10.8359C62.5978 8.76746 62.3105 7.05453 61.7042 5.72656C61.0201 4.22835 59.4748 3.5752 57.3624 3.5752H56.505V3.22363H84.8019Z" fill="#2C6466" stroke="#2C6466"/>
<path d="M114.8 3.22363L115.769 3.24414C116.414 3.2662 117.059 3.30517 117.702 3.36035L118.666 3.45508H118.668C119.974 3.59758 121.266 3.84488 122.531 4.19434L123.072 4.35059L123.074 4.35156C124.339 4.72655 125.542 5.27871 126.65 5.99121L127.118 6.30664C128.273 7.12173 129.235 8.1786 129.939 9.40234L130.076 9.64941L130.078 9.65332C130.817 11.0026 131.201 12.7159 131.199 14.8184L131.193 15.2803C131.134 17.408 130.667 19.1163 129.823 20.4355L129.637 20.7119L129.635 20.7158C128.688 22.0732 127.428 23.181 125.966 23.9492L125.671 24.0986L125.669 24.0996C124.104 24.8693 122.46 25.4699 120.768 25.8906L120.112 26.0537L120.46 26.6328L127.554 38.4453C129.273 41.3388 130.842 43.3746 132.267 44.4922V44.4932C133.524 45.4958 135.021 46.1489 136.605 46.3965V46.9717C136.206 47.1192 135.794 47.2272 135.373 47.29L135.366 47.292L135.359 47.293C134.771 47.3981 134.177 47.4633 133.581 47.4883L132.985 47.5H132.978C131.594 47.5145 130.225 47.2178 128.972 46.6328H128.971C127.918 46.1342 126.862 45.3349 125.806 44.2168L125.353 43.7168C124.034 42.1365 122.837 40.4591 121.772 38.6992L121.321 37.9385L121.32 37.9336L114.562 26.459L114.417 26.2129H108.899V46.8242H103.818V10.8359C103.818 8.7674 103.53 7.05455 102.924 5.72656C102.24 4.22852 100.696 3.5752 98.5851 3.5752H97.7336V3.22363H114.8ZM114.268 4.59375C113.422 4.6028 112.577 4.67204 111.74 4.7998C110.913 4.91499 110.092 5.0774 109.282 5.28613L108.907 5.38281V5.76953L108.899 24.3477V24.8477H114.282C115.452 24.8254 116.612 24.6352 117.729 24.2852L117.73 24.2861C119.024 23.8956 120.253 23.3162 121.378 22.5664L121.377 22.5654C122.575 21.7693 123.576 20.7099 124.3 19.4668C125.078 18.1564 125.452 16.5758 125.45 14.75C125.449 13.0385 125.117 11.5429 124.433 10.2832L124.291 10.0342C123.563 8.78804 122.567 7.71953 121.375 6.90527H121.376C120.256 6.13327 119.023 5.53841 117.722 5.1416H117.721C116.745 4.83997 115.737 4.66068 114.718 4.6084L114.28 4.59375H114.268Z" fill="#2C6466" stroke="#2C6466"/>
<path d="M156.5 3.22363C165.358 3.22368 171.871 5.19155 176.134 9.03516C180.405 12.8861 182.557 18.1034 182.557 24.7461L182.546 25.5459C182.438 29.5153 181.525 33.0504 179.815 36.1621C178.111 39.265 175.634 41.7457 172.371 43.6045L171.707 43.9678V43.9688C168.35 45.7427 164.207 46.6969 159.257 46.8076L158.257 46.8184H158.256L145.377 46.8232V10.8359C145.377 8.76738 145.09 7.05455 144.483 5.72656C143.799 4.22843 142.255 3.57526 140.143 3.5752H139.296V3.22363H156.5ZM157.914 4.59375C156.95 4.60447 155.989 4.6797 155.035 4.81934L154.63 4.88281C153.41 5.07925 152.204 5.35613 151.02 5.70996L150.662 5.81641V44.5L151.064 44.5811C151.968 44.7631 152.819 44.9201 153.624 45.0566C154.435 45.1942 155.2 45.297 155.959 45.3662C156.718 45.4354 157.407 45.4578 158.048 45.458V45.459C158.05 45.459 158.052 45.458 158.054 45.458L158.056 45.459V45.458C161.311 45.5036 164.514 44.6364 167.3 42.9521L167.042 42.5234L167.301 42.9521L167.305 42.9492C170.091 41.2265 172.341 38.7604 173.804 35.8291L173.805 35.8301C175.404 32.7495 176.193 29.1419 176.191 25.0234L176.183 24.2656C176.091 20.5049 175.315 17.1884 173.839 14.3291H173.838C172.47 11.5796 170.421 9.23066 167.89 7.50391L167.377 7.16602L167.375 7.16504L166.855 6.85254C164.407 5.444 161.645 4.69685 158.581 4.60352L157.92 4.59375H157.914Z" fill="#2C6466" stroke="#2C6466"/>
<path d="M207.861 3.22363L222.601 39.0654L222.604 39.0723C223.694 41.6126 224.761 43.452 225.818 44.5312C226.83 45.5641 228.241 46.1774 230 46.416V46.9238C229.829 46.9593 229.658 46.9921 229.486 47.0195L229.184 47.0625L229.18 47.0635C228.722 47.1287 228.259 47.1609 227.797 47.1602H227.796C226.756 47.1303 225.724 46.9868 224.717 46.7314L224.285 46.6143C222.77 46.1706 221.381 45.3772 220.229 44.2979L219.888 44.6621L220.229 44.2969L220.22 44.2891L219.975 44.0625C218.845 42.9683 217.834 41.3516 216.959 39.1797L216.773 38.7061L216.772 38.7031L215.076 34.3105L214.952 33.9912H195.354L195.225 34.2969L189.949 46.832H188.004L206.5 3.22363H207.861ZM204.697 11.9844L196.251 31.583L195.95 32.2812H214.019L213.733 31.5898L205.618 11.9912L205.166 10.8975L204.697 11.9844Z" fill="#2C6466" stroke="#2C6466"/>
<path d="M235.082 3.22363C237.103 3.22363 238.749 3.5341 240.041 4.12793L240.295 4.25C241.659 4.94308 242.863 5.91493 243.826 7.10352V7.10449L267.473 36.4873L268.362 37.5928V3.22363H270.066V47.5H269.459L240.552 11.5322L239.662 10.4258V46.8242H237.958V10.8359C237.958 8.73996 237.516 6.99639 236.585 5.64941C235.592 4.21278 233.783 3.5752 231.365 3.5752H231.189V3.22363H235.082Z" fill="#2C6466" stroke="#2C6466"/>
<path d="M299.361 3.23145L314.101 39.0732L314.104 39.0791C315.191 41.6197 316.257 43.4604 317.318 44.54C318.333 45.572 319.744 46.1851 321.5 46.4238V46.9307C321.329 46.9662 321.158 46.9988 320.985 47.0264L320.684 47.0713H320.682C320.226 47.1335 319.765 47.1622 319.305 47.1592C318.261 47.1297 317.225 46.9866 316.214 46.7305L315.782 46.6133L315.77 46.6104L315.517 46.5391C314.254 46.1602 312.992 45.4189 311.735 44.29C310.512 43.1914 309.419 41.4997 308.474 39.1768L308.287 38.7041V38.7031L306.59 34.3096L306.467 33.9902H286.868L286.74 34.2959L281.464 46.832H279.504L298 3.23145H299.361ZM296.197 11.9834L287.748 31.583L287.447 32.2803H305.514L305.227 31.5889L297.118 11.9902L296.666 10.8965L296.197 11.9834Z" fill="#2C6466" stroke="#2C6466"/>
</svg>
