<svg width="322" height="48" viewBox="0 0 322 48" fill="none" xmlns="http://www.w3.org/2000/svg">
<path d="M22.4359 47.103C22.4359 41.9862 22.5915 36.8665 22.4359 31.7554C22.3101 26.98 21.4829 22.2492 19.9807 17.7145C16.7845 8.26158 10.1544 2.71766 0.540249 0.539689C0.350738 0.497261 0.0537421 0.630202 0 0.0531815C5.44209 0.0248962 10.5646 1.34016 15.4438 3.52662C27.4339 8.90083 32.3527 19.406 29.2187 32.7199C28.0166 37.8367 25.9546 42.6197 23.3269 47.1454L22.4359 47.103Z" fill="white"/>
<path d="M34.0131 27.843C34.9493 24.8872 35.1106 21.8352 35.252 18.7775C35.3849 15.9066 35.4217 13.0158 35.7781 10.1703C36.4683 4.68298 39.2232 2.33247 44.7389 2.29004C46.0937 2.29004 47.4514 2.43429 49.1995 2.53329L34.6637 28.1541L34.0131 27.843Z" fill="white"/>
<path d="M62.0977 47.3239V10.8359C62.0977 8.80686 61.8148 7.17291 61.2491 5.93402C60.6834 4.69512 59.3879 4.07567 57.3627 4.07567H56.005V2.72363H84.8023C86.3768 2.72363 87.5705 2.98197 88.3832 3.49865C89.158 3.96793 89.755 4.6813 90.0803 5.52671C90.3967 6.35773 90.5577 7.23977 90.5555 8.12896V13.1977H89.2035C89.2035 10.4936 88.4709 8.52212 87.0057 7.28323C85.5405 6.04433 83.4568 5.42488 80.7547 5.42488H68.1677V22.9957H86.4117V25.6998H68.1677V44.6198H79.9938C83.058 44.6198 85.4792 44.0541 87.2574 42.9227C89.0356 41.7913 90.4433 39.8764 91.4804 37.178L92.8325 37.5174L90.4678 43.9353C90.1415 44.9234 89.5158 45.7854 88.6774 46.4018C87.842 47.0109 86.7493 47.3154 85.3991 47.3154L62.0977 47.3239Z" fill="white"/>
<path d="M132.983 47.9999C131.525 48.0153 130.082 47.703 128.76 47.0863C127.476 46.4791 126.215 45.4656 124.976 44.0457C123.447 42.2145 122.08 40.2545 120.889 38.1878L114.131 26.7124H109.399V47.3239H103.318V10.8359C103.318 8.80686 103.035 7.17291 102.469 5.93402C101.903 4.69512 100.609 4.07567 98.5856 4.07567H97.2336V2.72363H114.804C116.113 2.73472 117.421 2.81308 118.722 2.9584C120.245 3.12459 121.749 3.43041 123.216 3.87202C124.713 4.31597 126.128 4.99994 127.406 5.89725C128.702 6.81163 129.767 8.0154 130.517 9.41311C131.307 10.8557 131.701 12.6574 131.699 14.8184C131.699 17.3867 131.148 19.4478 130.045 21.0016C128.985 22.5195 127.555 23.7406 125.889 24.5486C124.292 25.334 122.616 25.9465 120.889 26.3758L127.983 38.1878C129.697 41.0729 131.229 43.0443 132.579 44.1022C133.88 45.1394 135.45 45.7841 137.105 45.9606V47.3126C136.575 47.541 136.018 47.6998 135.447 47.785C134.634 47.9305 133.809 48.0025 132.983 47.9999ZM109.399 24.3478H114.273C115.397 24.3264 116.512 24.1445 117.585 23.8075C118.832 23.4312 120.017 22.8726 121.101 22.15C122.237 21.3954 123.184 20.3899 123.87 19.2111C124.592 17.9949 124.952 16.508 124.95 14.7505C124.948 12.9931 124.585 11.5062 123.861 10.29C123.17 9.10593 122.224 8.09048 121.092 7.31717C120.014 6.5743 118.829 6.00188 117.576 5.62005C116.506 5.28868 115.393 5.11153 114.273 5.09394C113.448 5.10277 112.624 5.16988 111.809 5.29477C111 5.40733 110.198 5.56598 109.408 5.76996L109.399 24.3478Z" fill="white"/>
<path d="M144.877 47.3239V10.8359C144.877 8.80686 144.594 7.17291 144.029 5.93402C143.463 4.69512 142.168 4.07567 140.142 4.07567H138.796V2.72363H156.5C165.421 2.72363 172.077 4.7036 176.469 8.66355C180.861 12.6235 183.057 17.9845 183.057 24.7466C183.057 29.1157 182.122 33.0012 180.254 36.403C178.385 39.8047 175.614 42.4739 171.941 44.4105C168.269 46.3509 163.708 47.3201 158.256 47.3183L144.877 47.3239ZM158.055 44.9593C161.22 45.005 164.333 44.1612 167.042 42.5239C169.751 40.8487 171.94 38.4507 173.361 35.5997C174.916 32.6033 175.693 29.078 175.691 25.0238C175.691 21.0129 174.926 17.5244 173.395 14.5582C171.976 11.7041 169.802 9.29355 167.11 7.58871C164.451 5.92553 161.387 5.09394 157.92 5.09394C156.844 5.10591 155.771 5.20048 154.709 5.3768C153.511 5.56978 152.326 5.84096 151.162 6.18858V44.0909C152.062 44.2719 152.908 44.4275 153.708 44.5633C154.508 44.699 155.261 44.8009 156.005 44.8687C156.749 44.9366 157.425 44.9593 158.055 44.9593Z" fill="white"/>
<path d="M227.796 47.6605C226.561 47.6262 225.335 47.4361 224.147 47.0948C222.556 46.6292 221.097 45.7959 219.887 44.6623C218.494 43.4234 217.3 41.4971 216.306 38.8836L214.609 34.4909H195.686L190.281 47.3324H187.249L206.169 2.72363H208.197L223.064 38.8751C224.148 41.4019 225.185 43.1707 226.175 44.1814C227.165 45.1921 228.607 45.789 230.5 45.9719V47.3239C230.088 47.425 229.67 47.5034 229.25 47.5587C228.768 47.6273 228.282 47.6613 227.796 47.6605ZM196.71 31.7811H213.271L205.156 12.1822L196.71 31.7811Z" fill="white"/>
<path d="M269.22 47.9999L240.162 11.8456V47.3239H237.458V10.8359C237.458 8.80686 237.03 7.17291 236.174 5.93402C235.318 4.69512 233.715 4.07567 231.365 4.07567H230.689V2.72363H235.082C237.288 2.72363 239.101 3.0838 240.521 3.80413C241.949 4.52936 243.207 5.54709 244.215 6.79106L267.862 36.1738V2.72363H270.566V47.9999H269.22Z" fill="white"/>
<path d="M319.293 47.6598C318.058 47.6251 316.832 47.4351 315.644 47.0941C314.202 46.717 312.787 45.9061 311.402 44.6616C310.016 43.417 308.822 41.4908 307.821 38.8829L306.123 34.4902H287.201L281.795 47.3317H278.749L297.669 2.73145H299.697L314.564 38.8829C315.644 41.4097 316.681 43.1785 317.675 44.1892C318.669 45.2 320.111 45.7968 322 45.9797V47.3317C321.588 47.4323 321.17 47.5107 320.75 47.5665C320.267 47.6323 319.78 47.6635 319.293 47.6598ZM288.208 31.7805H304.766L296.656 12.1816L288.208 31.7805Z" fill="white"/>
</svg>
