<svg width="23" height="21" viewBox="0 0 23 21" fill="none" xmlns="http://www.w3.org/2000/svg">
<rect width="21.3049" height="20.9296" transform="translate(0.809082)" fill="#2C6466"/>
<path d="M10.8384 17.5285C10.8384 15.9893 10.8791 14.4473 10.8263 12.9112C10.7762 11.4751 10.5436 10.0579 10.0785 8.68797C9.1142 5.84623 7.11619 4.18208 4.22221 3.53233C4.16487 3.52027 4.07591 3.55993 4.05957 3.38631C5.69666 3.37452 7.23891 3.76731 8.70774 4.42269C12.3182 6.03352 13.8042 9.19035 12.8696 13.1973C12.5103 14.7377 11.8927 16.1763 11.1063 17.5436L10.8384 17.5285Z" fill="white"/>
<path d="M14.3088 11.7274C14.5888 10.8379 14.6352 9.91995 14.6762 8.99985C14.7145 8.13549 14.7236 7.2663 14.83 6.40944C15.0344 4.75841 15.8613 4.04972 17.5209 4.03391C17.9289 4.03016 18.3375 4.07544 18.8635 4.10438C17.3842 6.72319 15.9443 9.27181 14.5047 11.821L14.3088 11.7274Z" fill="white"/>
</svg>
